<svg xmlns="http://www.w3.org/2000/svg" viewBox="0 0 480 96" preserveAspectRatio="xMidYMax slice" aria-hidden="true" focusable="false"><defs><symbol id="p" overflow="visible"><path d="M12 4h10v16H12zM38 4h10v16H38z" fill="#2E6B62"/><path d="M17 4v16M43 4v16M12 10h10M38 10h10" stroke="#1F4A44" stroke-width="1"/><path d="M8 18h44M8 24h44M8 18v6M12 18v6M16 18v6M20 18v6M24 18v6M28 18v6M32 18v6M36 18v6M40 18v6M44 18v6M48 18v6M52 18v6" stroke="#2A2623" stroke-width="1.2" fill="none"/></symbol></defs><rect x="0" y="12" width="60" height="84" fill="#E8B04B"/><rect x="-1" y="12" width="62" height="3" fill="#2A2623"/><use href="#p" x="0" y="19"/><use href="#p" x="0" y="45"/><path d="M22 96v-16a8 8 0 0 1 16 0v16z" fill="#5E5650"/><rect x="60" y="24" width="60" height="72" fill="#E7A598"/><rect x="59" y="24" width="62" height="3" fill="#2A2623"/><use href="#p" x="60" y="31"/><path d="M82 96v-16a8 8 0 0 1 16 0v16z" fill="#5E5650"/><path d="M68 50h44" stroke="#A3245C" stroke-width="4" stroke-linecap="round" stroke-dasharray="3 5"/><rect x="120" y="6" width="60" height="90" fill="#9FC1D6"/><rect x="119" y="6" width="62" height="3" fill="#2A2623"/><use href="#p" x="120" y="13"/><use href="#p" x="120" y="39"/><path d="M142 96v-16a8 8 0 0 1 16 0v16z" fill="#5E5650"/><rect x="180" y="18" width="60" height="78" fill="#F2D7A7"/><rect x="179" y="18" width="62" height="3" fill="#2A2623"/><use href="#p" x="180" y="25"/><path d="M202 96v-16a8 8 0 0 1 16 0v16z" fill="#5E5650"/><rect x="240" y="10" width="60" height="86" fill="#E59A6E"/><rect x="239" y="10" width="62" height="3" fill="#2A2623"/><use href="#p" x="240" y="17"/><use href="#p" x="240" y="43"/><path d="M262 96v-16a8 8 0 0 1 16 0v16z" fill="#5E5650"/><path d="M248 36h44" stroke="#A3245C" stroke-width="4" stroke-linecap="round" stroke-dasharray="3 5"/><rect x="300" y="26" width="60" height="70" fill="#C9D9C4"/><rect x="299" y="26" width="62" height="3" fill="#2A2623"/><use href="#p" x="300" y="33"/><path d="M322 96v-16a8 8 0 0 1 16 0v16z" fill="#5E5650"/><rect x="360" y="14" width="60" height="82" fill="#F0C9B5"/><rect x="359" y="14" width="62" height="3" fill="#2A2623"/><use href="#p" x="360" y="21"/><use href="#p" x="360" y="47"/><path d="M382 96v-16a8 8 0 0 1 16 0v16z" fill="#5E5650"/><path d="M368 40h44" stroke="#A3245C" stroke-width="4" stroke-linecap="round" stroke-dasharray="3 5"/><rect x="420" y="20" width="60" height="76" fill="#B5452F"/><rect x="419" y="20" width="62" height="3" fill="#2A2623"/><use href="#p" x="420" y="27"/><path d="M442 96v-16a8 8 0 0 1 16 0v16z" fill="#5E5650"/></svg>